<?xml version="1.0" encoding="UTF-8" standalone="no"?><svg xmlns="http://www.w3.org/2000/svg" xmlns:xlink="http://www.w3.org/1999/xlink" contentScriptType="application/ecmascript" contentStyleType="text/css" height="463px" preserveAspectRatio="none" style="width:532px;height:463px;" version="1.1" viewBox="0 0 532 463" width="532px" zoomAndPan="magnify"><defs><filter height="300%" id="f1r0d2hklz3w8u" width="300%" x="-1" y="-1"><feGaussianBlur result="blurOut" stdDeviation="2.0"/><feColorMatrix in="blurOut" result="blurOut2" type="matrix" values="0 0 0 0 0 0 0 0 0 0 0 0 0 0 0 0 0 0 .4 0"/><feOffset dx="4.0" dy="4.0" in="blurOut2" result="blurOut3"/><feBlend in="SourceGraphic" in2="blurOut3" mode="normal"/></filter></defs><g><!--cluster Configuration--><rect fill="#FFFFFF" filter="url(#f1r0d2hklz3w8u)" height="221" style="stroke: #000000; stroke-width: 1.5;" width="192" x="154" y="231"/><text fill="#000000" font-family="sans-serif" font-size="14" font-weight="bold" lengthAdjust="spacingAndGlyphs" textLength="100" x="200" y="246.5352">Configuration</text><!--cluster Simulation--><rect fill="#FFFFFF" filter="url(#f1r0d2hklz3w8u)" height="207" style="stroke: #000000; stroke-width: 1.5;" width="166" x="167" y="16"/><text fill="#000000" font-family="sans-serif" font-size="14" font-weight="bold" lengthAdjust="spacingAndGlyphs" textLength="78" x="211" y="31.5352">Simulation</text><ellipse cx="249.9462" cy="351.9892" fill="#FEFECE" filter="url(#f1r0d2hklz3w8u)" rx="82.9462" ry="18.9892" style="stroke: #A80036; stroke-width: 1.5;"/><text fill="#000000" font-family="sans-serif" font-size="14" lengthAdjust="spacingAndGlyphs" textLength="137" x="181.4462" y="356.7334">Show Configuration</text><ellipse cx="250.1434" cy="278.0287" fill="#FEFECE" filter="url(#f1r0d2hklz3w8u)" rx="88.1434" ry="20.0287" style="stroke: #A80036; stroke-width: 1.5;"/><text fill="#000000" font-family="sans-serif" font-size="14" lengthAdjust="spacingAndGlyphs" textLength="149" x="175.6434" y="282.7728">Update Configuration</text><ellipse cx="249.9462" cy="424.9892" fill="#FEFECE" filter="url(#f1r0d2hklz3w8u)" rx="82.9462" ry="18.9892" style="stroke: #A80036; stroke-width: 1.5;"/><text fill="#000000" font-family="sans-serif" font-size="14" lengthAdjust="spacingAndGlyphs" textLength="137" x="181.4462" y="429.7334">Reset Configuration</text><ellipse cx="249.833" cy="128.1666" fill="#FEFECE" filter="url(#f1r0d2hklz3w8u)" rx="71.333" ry="16.6666" style="stroke: #A80036; stroke-width: 1.5;"/><text fill="#000000" font-family="sans-serif" font-size="14" lengthAdjust="spacingAndGlyphs" textLength="109" x="195.333" y="132.9107">Start Simulation</text><ellipse cx="249.9732" cy="196.8946" fill="#FEFECE" filter="url(#f1r0d2hklz3w8u)" rx="74.9732" ry="17.3946" style="stroke: #A80036; stroke-width: 1.5;"/><text fill="#000000" font-family="sans-serif" font-size="14" lengthAdjust="spacingAndGlyphs" textLength="118" x="190.9732" y="201.6388">Watch Simulation</text><ellipse cx="249.9349" cy="60.087" fill="#FEFECE" filter="url(#f1r0d2hklz3w8u)" rx="70.9349" ry="16.587" style="stroke: #A80036; stroke-width: 1.5;"/><text fill="#000000" font-family="sans-serif" font-size="14" lengthAdjust="spacingAndGlyphs" textLength="108" x="195.9349" y="64.8311">Stop Simulation</text><!--entity Player--><ellipse cx="53.5" cy="96.5" fill="#FEFECE" filter="url(#f1r0d2hklz3w8u)" rx="8" ry="8" style="stroke: #A80036; stroke-width: 2.0;"/><path d="M53.5,104.5 L53.5,131.5 M40.5,112.5 L66.5,112.5 M53.5,131.5 L40.5,146.5 M53.5,131.5 L66.5,146.5 " fill="none" filter="url(#f1r0d2hklz3w8u)" style="stroke: #A80036; stroke-width: 2.0;"/><text fill="#000000" font-family="sans-serif" font-size="14" lengthAdjust="spacingAndGlyphs" textLength="41" x="33" y="167.0352">Player</text><!--entity Auditor--><ellipse cx="494" cy="96.5" fill="#FEFECE" filter="url(#f1r0d2hklz3w8u)" rx="8" ry="8" style="stroke: #A80036; stroke-width: 2.0;"/><path d="M494,104.5 L494,131.5 M481,112.5 L507,112.5 M494,131.5 L481,146.5 M494,131.5 L507,146.5 " fill="none" filter="url(#f1r0d2hklz3w8u)" style="stroke: #A80036; stroke-width: 2.0;"/><text fill="#000000" font-family="sans-serif" font-size="14" lengthAdjust="spacingAndGlyphs" textLength="52" x="468" y="167.0352">Auditor</text><!--entity Administrator--><ellipse cx="53.5" cy="320.5" fill="#FEFECE" filter="url(#f1r0d2hklz3w8u)" rx="8" ry="8" style="stroke: #A80036; stroke-width: 2.0;"/><path d="M53.5,328.5 L53.5,355.5 M40.5,336.5 L66.5,336.5 M53.5,355.5 L40.5,370.5 M53.5,355.5 L66.5,370.5 " fill="none" filter="url(#f1r0d2hklz3w8u)" style="stroke: #A80036; stroke-width: 2.0;"/><text fill="#000000" font-family="sans-serif" font-size="14" lengthAdjust="spacingAndGlyphs" textLength="95" x="6" y="391.0352">Administrator</text><!--link Administrator to Show Configuration--><path d="M101.0672,352 C119.3639,352 140.8898,352 161.802,352 " fill="none" id="Administrator-Show Configuration" style="stroke: #A80036; stroke-width: 1.0;"/><polygon fill="#A80036" points="166.8176,352,157.8176,348,161.8176,352,157.8176,356,166.8176,352" style="stroke: #A80036; stroke-width: 1.0;"/><!--link Administrator to Update Configuration--><path d="M101.0672,334.0867 C130.8243,322.8804 169.123,308.4575 199.4308,297.0439 " fill="none" id="Administrator-Update Configuration" style="stroke: #A80036; stroke-width: 1.0;"/><polygon fill="#A80036" points="204.2239,295.2388,194.3916,294.6673,199.5447,297.001,197.2111,302.154,204.2239,295.2388" style="stroke: #A80036; stroke-width: 1.0;"/><!--link Administrator to Reset Configuration--><path d="M101.0672,369.6713 C131.4712,380.9664 170.7922,395.5742 201.3959,406.9435 " fill="none" id="Administrator-Reset Configuration" style="stroke: #A80036; stroke-width: 1.0;"/><polygon fill="#A80036" points="206.2301,408.7394,199.1865,401.8555,201.5431,406.9981,196.4005,409.3547,206.2301,408.7394" style="stroke: #A80036; stroke-width: 1.0;"/><!--link Player to Start Simulation--><path d="M74.1575,128 C97.6369,128 137.3479,128 173.0968,128 " fill="none" id="Player-Start Simulation" style="stroke: #A80036; stroke-width: 1.0;"/><polygon fill="#A80036" points="178.3401,128,169.3401,124,173.3401,128,169.3401,132,178.3401,128" style="stroke: #A80036; stroke-width: 1.0;"/><!--link Player to Watch Simulation--><path d="M74.1575,135.2538 C104.6469,145.96 162.5067,166.2772 203.5193,180.6785 " fill="none" id="Player-Watch Simulation" style="stroke: #A80036; stroke-width: 1.0;"/><polygon fill="#A80036" points="208.4344,182.4044,201.2679,175.6485,203.7168,180.7479,198.6175,183.1967,208.4344,182.4044" style="stroke: #A80036; stroke-width: 1.0;"/><!--link Player to Stop Simulation--><path d="M74.1575,120.8513 C105.1203,110.1365 164.3102,89.6535 205.4175,75.428 " fill="none" id="Player-Stop Simulation" style="stroke: #A80036; stroke-width: 1.0;"/><polygon fill="#A80036" points="210.3378,73.7253,200.5245,72.8888,205.6128,75.3606,203.141,80.4488,210.3378,73.7253" style="stroke: #A80036; stroke-width: 1.0;"/><!--link Start Simulation to Auditor--><path d="M326.7977,128 C375.1371,128 434.5035,128 467.9157,128 " fill="none" id="Start Simulation-Auditor" style="stroke: #A80036; stroke-width: 1.0;"/><polygon fill="#A80036" points="321.5594,128,330.5594,132,326.5594,128,330.5594,124,321.5594,128" style="stroke: #A80036; stroke-width: 1.0;"/><text fill="#000000" font-family="sans-serif" font-size="13" lengthAdjust="spacingAndGlyphs" textLength="68" x="369" y="124.5684">check logs</text><!--link Watch Simulation to Auditor--><path d="M314.5719,185.052 C351.2438,177.4837 397.7301,166.564 438,153 C447.9891,149.6354 458.6272,145.1343 467.9184,140.8789 " fill="none" id="Watch Simulation-Auditor" style="stroke: #A80036; stroke-width: 1.0;"/><polygon fill="#A80036" points="309.2344,186.1442,318.8536,188.2586,314.1329,185.1418,317.2497,180.4211,309.2344,186.1442" style="stroke: #A80036; stroke-width: 1.0;"/><text fill="#000000" font-family="sans-serif" font-size="13" lengthAdjust="spacingAndGlyphs" textLength="68" x="369" y="149.5684">check logs</text><!--link Stop Simulation to Auditor--><path d="M309.4584,71.7652 C346.772,79.7531 395.6675,91.3311 438,105 C447.9018,108.1972 458.5201,112.3613 467.8198,116.2662 " fill="none" id="Stop Simulation-Auditor" style="stroke: #A80036; stroke-width: 1.0;"/><polygon fill="#A80036" points="304.5042,70.7111,312.4745,76.4968,309.3947,71.7518,314.1397,68.672,304.5042,70.7111" style="stroke: #A80036; stroke-width: 1.0;"/><text fill="#000000" font-family="sans-serif" font-size="13" lengthAdjust="spacingAndGlyphs" textLength="68" x="369" y="83.5684">check logs</text><!--
@startuml

left to right direction

actor Player
actor Auditor
actor Administrator

rectangle Configuration {
    Administrator - -> (Show Configuration)
    Administrator -> (Update Configuration)
    Administrator - -> (Reset Configuration)
}

rectangle Simulation {
    Player - -> (Start Simulation)
    Player - -> (Watch Simulation)
    Player -> (Stop Simulation)
    (Start Simulation) <- - Auditor: check logs
    (Watch Simulation) <- - Auditor: check logs
    (Stop Simulation) <- - Auditor: check logs
}

@enduml

PlantUML version 1.2018.01(Sun Jan 28 19:08:22 CET 2018)
(GPL source distribution)
Java Runtime: OpenJDK Runtime Environment
JVM: OpenJDK 64-Bit Server VM
Java Version: 1.8.0_152-release-1248-b8
Operating System: Mac OS X
OS Version: 10.13.5
Default Encoding: UTF-8
Language: en
Country: NL
--></g></svg>