<?xml version="1.0" encoding="UTF-8" standalone="no"?><svg xmlns="http://www.w3.org/2000/svg" xmlns:xlink="http://www.w3.org/1999/xlink" contentScriptType="application/ecmascript" contentStyleType="text/css" height="352px" preserveAspectRatio="none" style="width:333px;height:352px;" version="1.1" viewBox="0 0 333 352" width="333px" zoomAndPan="magnify"><defs><filter height="300%" id="fmgiy5b03yrd9" width="300%" x="-1" y="-1"><feGaussianBlur result="blurOut" stdDeviation="2.0"/><feColorMatrix in="blurOut" result="blurOut2" type="matrix" values="0 0 0 0 0 0 0 0 0 0 0 0 0 0 0 0 0 0 .4 0"/><feOffset dx="4.0" dy="4.0" in="blurOut2" result="blurOut3"/><feBlend in="SourceGraphic" in2="blurOut3" mode="normal"/></filter></defs><g><!--cluster Bookmarks--><rect fill="#FFFFFF" filter="url(#fmgiy5b03yrd9)" height="67" style="stroke: #000000; stroke-width: 1.5;" width="154" x="145" y="256.5"/><text fill="#000000" font-family="sans-serif" font-size="14" font-weight="bold" lengthAdjust="spacingAndGlyphs" textLength="81" x="181.5" y="272.0352">Bookmarks</text><!--cluster Web Adapter--><rect fill="#FFFFFF" filter="url(#fmgiy5b03yrd9)" height="77" style="stroke: #000000; stroke-width: 1.5;" width="200" x="122" y="133.5"/><text fill="#000000" font-family="sans-serif" font-size="14" font-weight="bold" lengthAdjust="spacingAndGlyphs" textLength="91" x="176.5" y="149.0352">Web Adapter</text><!--cluster API Adapter--><rect fill="#FFFFFF" filter="url(#fmgiy5b03yrd9)" height="75" style="stroke: #000000; stroke-width: 1.5;" width="194" x="125" y="16.5"/><text fill="#000000" font-family="sans-serif" font-size="14" font-weight="bold" lengthAdjust="spacingAndGlyphs" textLength="85" x="179.5" y="32.0352">API Adapter</text><ellipse cx="221.9651" cy="299.693" fill="#FEFECE" filter="url(#fmgiy5b03yrd9)" rx="68.9651" ry="16.193" style="stroke: #A80036; stroke-width: 1.5;"/><text fill="#000000" font-family="sans-serif" font-size="14" lengthAdjust="spacingAndGlyphs" textLength="103" x="170.4651" y="304.4372">List Bookmarks</text><ellipse cx="222.1075" cy="181.3215" fill="#FEFECE" filter="url(#fmgiy5b03yrd9)" rx="92.1075" ry="20.8215" style="stroke: #A80036; stroke-width: 1.5;"/><text fill="#000000" font-family="sans-serif" font-size="14" lengthAdjust="spacingAndGlyphs" textLength="158" x="143.1075" y="186.0656">List Bookmarks on Web</text><ellipse cx="222.0197" cy="63.7039" fill="#FEFECE" filter="url(#fmgiy5b03yrd9)" rx="89.0197" ry="20.2039" style="stroke: #A80036; stroke-width: 1.5;"/><text fill="#000000" font-family="sans-serif" font-size="14" lengthAdjust="spacingAndGlyphs" textLength="151" x="146.5197" y="68.4481">List Bookmarks on API</text><!--entity User--><ellipse cx="38" cy="268" fill="#FEFECE" filter="url(#fmgiy5b03yrd9)" rx="8" ry="8" style="stroke: #A80036; stroke-width: 2.0;"/><path d="M38,276 L38,303 M25,284 L51,284 M38,303 L25,318 M38,303 L51,318 " fill="none" filter="url(#fmgiy5b03yrd9)" style="stroke: #A80036; stroke-width: 2.0;"/><text fill="#000000" font-family="sans-serif" font-size="14" lengthAdjust="spacingAndGlyphs" textLength="31" x="22.5" y="338.5352">User</text><!--entity Web--><ellipse cx="38" cy="150" fill="#FEFECE" filter="url(#fmgiy5b03yrd9)" rx="8" ry="8" style="stroke: #A80036; stroke-width: 2.0;"/><path d="M38,158 L38,185 M25,166 L51,166 M38,185 L25,200 M38,185 L51,200 " fill="none" filter="url(#fmgiy5b03yrd9)" style="stroke: #A80036; stroke-width: 2.0;"/><text fill="#000000" font-family="sans-serif" font-size="14" lengthAdjust="spacingAndGlyphs" textLength="64" x="6" y="220.5352">Web User</text><!--entity API--><ellipse cx="38" cy="32" fill="#FEFECE" filter="url(#fmgiy5b03yrd9)" rx="8" ry="8" style="stroke: #A80036; stroke-width: 2.0;"/><path d="M38,40 L38,67 M25,48 L51,48 M38,67 L25,82 M38,67 L51,82 " fill="none" filter="url(#fmgiy5b03yrd9)" style="stroke: #A80036; stroke-width: 2.0;"/><text fill="#000000" font-family="sans-serif" font-size="14" lengthAdjust="spacingAndGlyphs" textLength="57" x="9.5" y="102.5352">API User</text><!--link User to List Bookmarks--><path d="M53.6877,299.5 C74.5617,299.5 112.8915,299.5 147.7058,299.5 " fill="none" id="User-List Bookmarks" style="stroke: #A80036; stroke-width: 1.0;"/><polygon fill="#A80036" points="152.8143,299.5,143.8143,295.5,147.8143,299.5,143.8143,303.5,152.8143,299.5" style="stroke: #A80036; stroke-width: 1.0;"/><!--link Web to List Bookmarks on Web--><path d="M70.0504,181.5 C85.5222,181.5 105.0006,181.5 124.8012,181.5 " fill="none" id="Web-List Bookmarks on Web" style="stroke: #A80036; stroke-width: 1.0;"/><polygon fill="#A80036" points="129.84,181.5,120.84,177.5,124.84,181.5,120.84,185.5,129.84,181.5" style="stroke: #A80036; stroke-width: 1.0;"/><!--link API to List Bookmarks on API--><path d="M66.75,63.5 C83.4762,63.5 105.6085,63.5 127.905,63.5 " fill="none" id="API-List Bookmarks on API" style="stroke: #A80036; stroke-width: 1.0;"/><polygon fill="#A80036" points="132.9644,63.5,123.9644,59.5,127.9644,63.5,123.9644,67.5,132.9644,63.5" style="stroke: #A80036; stroke-width: 1.0;"/><!--
@startuml

left to right direction

actor User
actor "Web User" as Web
actor "API User" as API

rectangle Bookmarks {
    User - -> (List Bookmarks)
}

rectangle "Web Adapter" {
    Web - -> (List Bookmarks on Web)
}

rectangle "API Adapter" {
    API - -> (List Bookmarks on API)
}

@enduml

PlantUML version 1.2018.01(Sun Jan 28 19:08:22 CET 2018)
(GPL source distribution)
Java Runtime: OpenJDK Runtime Environment
JVM: OpenJDK 64-Bit Server VM
Java Version: 1.8.0_152-release-915-b12
Operating System: Mac OS X
OS Version: 10.13.5
Default Encoding: UTF-8
Language: en
Country: NL
--></g></svg>